<svg height="50" viewBox="0 0 51 50" width="51" xmlns="http://www.w3.org/2000/svg" xmlns:xlink="http://www.w3.org/1999/xlink"><linearGradient id="a" x1="100%" x2="3.059879%" y1="100%" y2="3.059879%"><stop offset="0" stop-color="#00d3a7"/><stop offset="1" stop-color="#02c0d0"/></linearGradient><path d="m32.5195312 25c0-4.0924072-3.3294677-7.421875-7.421875-7.421875-2.9243468 0-5.5919647 1.7658233-6.7958832 4.498291-.4352569.9872437-1.5880584 1.4347076-2.5749206.9998321-.9872436-.4348754-1.4347077-1.5876769-.9998321-2.5749206 1.8280029-4.1488647 5.8986663-6.8294525 10.3706359-6.8294525 6.2461854 0 11.328125 5.0819396 11.328125 11.328125 0 4.5307159-2.6893615 8.6162567-6.8508148 10.4084015-.25177.1083374-.5138396.1598358-.7717133.1598358-.7564544 0-1.4762878-.4421234-1.794815-1.1814117-.4264831-.990677.030899-2.1396637 1.021576-2.5661469 2.727127-1.1745453 4.4895171-3.8516998 4.4895171-6.8206787zm11.7187501-6.8359375h-.9838105c-.2586364 0-.4932403-.1628876-.5947112-.4089355l-.0175477-.0423432c-.1052856-.2532959-.0549316-.535202.1281738-.717926l.6954194-.6958008c2.2846221-2.2846222 2.2846221-6.0016632 0-8.28628542l-1.3809204-1.38092041c-1.1070252-1.10664365-2.5783539-1.71623222-4.1435243-1.71623222-1.5647887 0-3.036499.60958857-4.1431426 1.71623222l-.6954194.69541934c-.1831054.18310547-.465393.23307803-.7175445.12855527l-.0366211-.01525879c-.2521515-.10414121-.415039-.33874511-.415039-.59738154v-.98381045c0-3.23104863-2.628708-5.859375-5.859375-5.859375h-1.953125c-3.2310487 0-5.859375 2.62832637-5.859375 5.859375v.98381045c0 .25863643-.1628876.49324033-.4131318.59623721l-.038147.01602168c-.2532959.1049042-.5352019.05493164-.7183074-.12817383l-.6954193-.69541934c-1.1066438-1.10664365-2.5779725-1.71623222-4.1431428-1.71623222-1.5651702 0-3.03649902.60958857-4.14314267 1.71623222l-1.38092041 1.38092041c-2.28462217 2.28462222-2.28462217 6.00204472 0 8.28666692l.69541934.6954193c.18310547.1831055.23307803.4650115.12512207.7255554l-.01182559.0286102c-.10414121.2521515-.33874511.4150391-.59738154.4150391h-.98381045c-3.23104863 0-5.859375 2.6287079-5.859375 5.859375v1.953125c0 2.5733947 1.64871211 4.8202515 4.10232539 5.5908203 1.02882393.3231049 2.12516787-.2490997 2.4486542-1.2779236.32310488-1.0292053-.24909971-2.1255492-1.27830498-2.4486541-.81748965-.2567291-1.36642461-1.0059358-1.36642461-1.8642426v-1.953125c0-1.0768891.87623594-1.953125 1.953125-1.953125h.98381045c1.84593193 0 3.4976959-1.1108398 4.2102813-2.8366089l.0091553-.0221253c.7141113-1.719284.3322602-3.6735534-.9731293-4.9789428l-.69541931-.6954193c-.76179502-.7614136-.76179502-2.0004272 0-2.7622223l1.38092051-1.38092046c.3688811-.36888115.8594513-.57220449 1.3809203-.57220449.5218506 0 1.0120393.20294179 1.381302.57220449l.6954193.69541936c1.3057708 1.3053894 3.2600402 1.6872406 4.9797058.9727478l.0274658-.0114441c1.7192841-.7099152 2.8305054-2.36167912 2.8305054-4.20761105v-.98381045c0-1.07688906.8762359-1.953125 1.953125-1.953125h1.953125c1.076889 0 1.953125.87623594 1.953125 1.953125v.98381045c0 1.84631348 1.1108398 3.49769585 2.8324126 4.20875545l.0263215.0110626c1.719284.7137299 3.6735534.3318787 4.9789428-.9735107l.6954193-.69541936c.3688813-.36888115.8594514-.57220449 1.381302-.57220449.521469 0 1.0120392.20332334 1.3809203.57220449l1.3809205 1.38092046c.761795.7617951.761795 2.0008087.0003815 2.7622223l-.6958008.6954193c-1.3053895 1.3053894-1.6872406 3.2596588-.9761811 4.971695l.0148774.0358581c.7099151 1.7192841 2.3612975 2.8301239 4.207611 2.8301239h.9838105c1.076889 0 1.953125.8762359 1.953125 1.953125v1.953125c0 1.0768891-.876236 1.953125-1.953125 1.953125h-.9838105c-1.8463135 0-3.4976959 1.1108398-4.2079925 2.8301239l-.0125886.030899c-.7129668 1.7185211-.3307342 3.6716461.9742738 4.9766541l.6954193.6954193c.3688812.3688812.5722045.8594514.5722045 1.3809204 0 .5218506-.2033233 1.0124207-.5722045 1.3813019l-1.3809205 1.3809205c-.3688811.3688811-.8594513.5722045-1.3813019.5722045-.5218505 0-1.0120391-.2033234-1.3809204-.5722045l-.6958007-.6954194c-1.3053894-1.3053894-3.2596588-1.6872406-4.9793244-.9731293l-.0278472.0114442c-1.7192841.7099151-2.8301239 2.361679-2.8301239 4.2079925v.9838104c0 1.0768891-.876236 1.953125-1.953125 1.953125h-1.953125c-.8113862 0-1.5472413-.5104064-1.8310547-1.2695313-.3772736-1.0105132-1.5022278-1.52359-2.5131226-1.145935-1.0105133.377655-1.5235901 1.5026093-1.1455536 2.5131225.851059 2.2777558 3.0570984 3.8085938 5.4897309 3.8085938h1.953125c3.230667 0 5.859375-2.6287079 5.859375-5.859375v-.9838104c0-.2586365.1628875-.4932404.4127501-.5966187l.0385286-.0156402c.2532959-.1052857.5352019-.0549317.7179259.1281738l.6954194.6954193c1.1066436 1.1066437 2.5783539 1.7162323 4.1435242 1.7162323 1.5647888 0 3.036499-.6095886 4.1431427-1.7162323l1.3809204-1.3813019c1.1066436-1.1066437 1.7162322-2.5779724 1.7162322-4.1431427 0-1.5647888-.6095886-3.036499-1.7162322-4.1431427l-.6954194-.6954193c-.1831054-.1831055-.233078-.4650115-.1281738-.7183074l.0148774-.0354768c.1041412-.2525329.3387451-.4154205.5973815-.4154205h.9838105c3.230667 0 5.859375-2.6283264 5.859375-5.859375v-1.953125c0-3.2310486-2.628708-5.859375-5.859375-5.859375zm-22.2240449 18.4009552-10.7006073 10.6803894c-.2380371.2380371-.5336761.41008-.8583068.4997253l-7.88307191 2.1839143c-.17242432.0476837-.34751894.0709533-.52146914.0709533-.51918027 0-1.02539063-.2071381-1.39808652-.5893707-.49743653-.5096436-.67787168-1.2496948-.47073369-1.9313813l2.33535771-7.6881408c.09346006-.3078461.26130674-.5878449.48904414-.8148193l10.72311411-10.6990815c2.2830962-2.2830962 6.0001373-2.2830962 8.2847594.0015259 2.2846222 2.2846222 2.2846222 6.0016632 0 8.2862854zm-5.9040069.3738403-2.7626037-2.7626037-7.23533635 7.2189331-1.1608124 3.8211822 3.96614072-1.0986328zm3.1417847-5.8982849c-.7614136-.7614135-2.0004273-.7614135-2.7618409 0l-.3772735.3765107 2.7622223 2.7622223.3784179-.3776551c.7602692-.7602692.7602692-1.9992828-.0015258-2.7610779z" fill="url(#a)"/></svg>