<svg height="24" viewBox="0 0 93 24" width="93" xmlns="http://www.w3.org/2000/svg" xmlns:xlink="http://www.w3.org/1999/xlink"><linearGradient id="a" x1="100%" x2="3.059879%" y1="100%" y2="3.059879%"><stop offset="0" stop-color="#00d3a7"/><stop offset="1" stop-color="#02c0d0"/></linearGradient><g fill="none" fill-rule="evenodd"><g fill="#fff"><path d="m28.6418805 18.4614274h2.9944667v-11.93456293h-2.9944667zm1.4977747-16.84847632c.5245188 0 .9748797.18945469 1.3505413.56998797.3751203.37999198.5634924.84117883.5634924 1.38193665 0 .53372093-.1862069.98895349-.5586207 1.36623898-.3713312.37620288-.8162791.56403368-1.3337611.56403368-.5326383 0-.9867883-.19161989-1.3619085-.57540097-.3751203-.38378107-.5629511-.84983961-.5629511-1.39871692 0-.52668404.1856656-.97650361.5575381-1.3489174.3718725-.37349639.8200681-.55916199 1.3456696-.55916199z"/><path d="m33.9073677 6.52675621h2.9944667v1.22333601c.6793304-.57269447 1.2947875-.97054932 1.84583-1.19464715.5510425-.22355654 1.1156175-.33560545 1.692101-.33560545 1.1832799 0 2.1868485.41301122 3.0123296 1.23957498.6939455.70206495 1.0409182 1.73973536 1.0409182 3.1151764v7.8867282h-2.9619887v-5.226243c0-1.424158-.0638733-2.3698076-.1916199-2.8380313-.1277466-.46714113-.3502206-.82331595-.6674218-1.06798315-.3177426-.2446672-.7091019-.3670008-1.176243-.3670008-.6057137 0-1.1253609.20244587-1.5594828.60787891-.4341219.40543303-.7350842.96621894-.9028869 1.68181634-.0876905.3729551-.1315357 1.1794908-.1315357 2.421231v4.788332h-2.9944667z"/><path d="m52.5996171 8.98371291c-.9256215 0-1.6948076.32694467-2.3070169.9813753-.6122093.65497189-.9180433 1.49398559-.9180433 2.51812349 0 1.0306335.311247 1.8793905.9348236 2.5446472.6230353.6657979 1.3900561.9981555 2.3010626.9981555.9402365 0 1.7197073-.3274859 2.3394948-.9819166.6192461-.6544306.9294105-1.5118484.9294105-2.5722534 0-1.0382117-.3101644-1.8788492-.9294105-2.52299516-.6197875-.64306335-1.4030474-.96513633-2.3503208-.96513633zm3.1476544-7.06395349h2.995008v16.54155978h-2.995008v-1.2617683c-.5840618.5559142-1.1702887.9559343-1.7581396 1.2011428-.5883921.2452085-1.2249599.3675421-1.9118685.3675421-1.5416199 0-2.8742983-.5975943-3.9991179-1.793324-1.1248195-1.1957298-1.6872293-2.6821371-1.6872293-4.4592221 0-1.8425822.5440056-3.35280678 1.6325581-4.53013236 1.0885526-1.17732558 2.410405-1.76571772 3.9660987-1.76571772.7155974 0 1.3878909.13532477 2.0157979.40597433.6284483.27064956 1.2087209.6760826 1.7419006 1.21738172z"/><path d="m60.9915397 18.4614274h2.9944667v-11.93456293h-2.9944667zm1.4966921-16.84847632c.5250601 0 .975421.18945469 1.3510826.56998797.3756615.37999198.562951.84117883.562951 1.38193665 0 .53372093-.1851243.98895349-.5575381 1.36623898-.3718724.37620288-.8168203.56403368-1.3343023.56403368-.532097 0-.986247-.19161989-1.3619086-.57540097-.3756615-.38378107-.562951-.84983961-.562951-1.39871692 0-.52668404.1856656-.97650361.557538-1.3489174.3718725-.37349639.8206095-.55916199 1.3451284-.55916199z"/><path d="m86.2923476 9.0387089c-.9304931 0-1.7050922.32369687-2.3243384.9705493-.6187049.6473938-.928328 1.4755814-.928328 2.484563 0 1.038753.305834 1.8793905.9180433 2.5229952.6105854.6430633 1.3857258.9651363 2.3232559.9651363.93753 0 1.7175421-.3247795 2.3405773-.9765036.622494-.6506416.933741-1.4880313.933741-2.5116279 0-1.0235967-.305834-1.8555734-.917502-2.49538896s-1.3933039-.95972334-2.3454491-.95972334m-.0497995-2.8190858c1.1259022 0 2.1846833.28201684 3.1758019.84496792.9905774.56295108 1.7640939 1.32726544 2.3200081 2.29240176s.8336006 2.00713712.8336006 3.12600242c0 1.1259022-.2798516 2.1792702-.8390136 3.1590216-.559162.9802927-1.3218525 1.746231-2.2875301 2.2978148-.9651363.5521251-2.0287891.8287289-3.1914996.8287289-1.7110465 0-3.1725541-.6089615-4.3823577-1.8263432-1.2103448-1.217923-1.8155172-2.6967522-1.8155172-4.4375701 0-1.8647755.6836608-3.41830398 2.0515237-4.66166805 1.1989775-1.08205694 2.5776664-1.62335605 4.1349839-1.62335605"/><path d="m71.9806696 9.0387089c-.9304932 0-1.7050922.32369687-2.3243384.9705493-.6187049.6473938-.928328 1.4755814-.928328 2.484563 0 1.038753.305834 1.8793905.9180433 2.5229952.6105854.6430633 1.3857258.9651363 2.3232558.9651363.9375301 0 1.7175421-.3247795 2.3405774-.9765036.622494-.6506416.933741-1.4880313.933741-2.5116279 0-1.0235967-.305834-1.8555734-.917502-2.49538896s-1.3933039-.95972334-2.3454491-.95972334m-.0497995-2.8190858c1.1259022 0 2.1846832.28201684 3.1758019.84496792.9905774.56295108 1.7640938 1.32726544 2.320008 2.29240176s.8336007 2.00713712.8336007 3.12600242c0 1.1259022-.2798517 2.1792702-.8390137 3.1590216-.5591619.9802927-1.3218524 1.746231-2.28753 2.2978148-.9651364.5521251-2.0287891.8287289-3.1914996.8287289-1.7110465 0-3.1725542-.6089615-4.3823577-1.8263432-1.2103448-1.217923-1.8155172-2.6967522-1.8155172-4.4375701 0-1.8647755.6836608-3.41830398 2.0515236-4.66166805 1.1989776-1.08205694 2.5776664-1.62335605 4.134984-1.62335605"/><path d="m74.3097173 20.0909002c-.622494.6506415-1.4030473.9765036-2.3400361.9765036-.9380713 0-1.7126704-.322073-2.3237971-.9651364-.1596832-.168344-.2966319-.3518444-.4146351-.5467121h-3.1898757c.2906776.9164194.7930032 1.7419006 1.518344 2.4710305 1.2103448 1.217923 2.6713112 1.8263432 4.3823577 1.8263432 1.1627105 0 2.2263633-.2760625 3.1914996-.8276463.9662189-.5526664 1.7283681-1.3186047 2.2875301-2.2983561.2159783-.3783681.3772854-.7713512.5099037-1.1713713h-3.2061147c-.1185445.189996-.2560344.369166-.4151764.5353449"/><path d="m73.3757057 9.28819366-.9110064-2.6361267 5.546692-1.29965918.564575 2.13975541z"/></g><path d="m9.10344828 17.4705824v-8.36713412h8.36720642v-6.40161685h-14.76889565v14.76875097zm-9.10344828 2.7018314v-20.1724138h20.1724138v20.1724138z" fill="url(#a)"/></g></svg>